<svg xmlns="http://www.w3.org/2000/svg" xmlns:xlink="http://www.w3.org/1999/xlink" width="500" zoomAndPan="magnify" viewBox="0 0 375 374.999991" height="500" preserveAspectRatio="xMidYMid meet" version="1.2"><defs><clipPath id="00fb3ebe43"><path d="M 29 172 L 198 172 L 198 292 L 29 292 Z M 29 172 "/></clipPath><clipPath id="1be085b271"><path d="M 46.628906 305.507812 L 12.554688 238.464844 L 170.214844 158.335938 L 204.289062 225.378906 Z M 46.628906 305.507812 "/></clipPath><clipPath id="3cfb14b5d4"><path d="M 29.59375 271.984375 L 74.539062 291.324219 L 67.445312 277.367188 L 197.085938 211.480469 L 177.195312 172.347656 L 47.558594 238.234375 L 40.464844 224.277344 Z M 29.59375 271.984375 "/></clipPath><clipPath id="2dec40f677"><path d="M 120 106 L 188 106 L 188 227 L 120 227 Z M 120 106 "/></clipPath><clipPath id="e4abef1f37"><path d="M 187.410156 116.28125 L 163.285156 226.289062 L 120.871094 216.988281 L 144.996094 106.980469 Z M 187.410156 116.28125 "/></clipPath><clipPath id="c7bc494adb"><path d="M 163.3125 226.167969 L 187.410156 116.28125 L 163.191406 125.367188 L 144.996094 106.980469 L 120.898438 216.867188 L 145.117188 207.785156 Z M 163.3125 226.167969 "/></clipPath></defs><g id="72e904e03c"><g style="fill:#000000;fill-opacity:1;"><g transform="translate(82.556358, 290.599545)"><path style="stroke:none" d="M 13.53125 -0.1875 L 53.34375 -181.9375 L 30.859375 -211.46875 L 192.03125 -211.46875 C 193.550781 -211.46875 195.140625 -210.957031 196.796875 -209.9375 C 197.554688 -209.300781 198.285156 -208.695312 198.984375 -208.125 C 199.679688 -207.550781 200.347656 -206.882812 200.984375 -206.125 C 202.253906 -204.851562 203.269531 -203.332031 204.03125 -201.5625 C 204.789062 -200.15625 205.046875 -198.820312 204.796875 -197.5625 L 186.703125 -115.453125 L 160.59375 -102.109375 L 180.984375 -89.15625 L 164.59375 -14.09375 C 164.46875 -13.082031 163.644531 -11.75 162.125 -10.09375 C 161.363281 -9.207031 160.597656 -8.382812 159.828125 -7.625 C 159.066406 -6.863281 158.179688 -6.164062 157.171875 -5.53125 C 156.148438 -4.757812 155.160156 -4.085938 154.203125 -3.515625 C 153.253906 -2.953125 152.273438 -2.351562 151.265625 -1.71875 C 148.972656 -0.695312 147.128906 -0.1875 145.734375 -0.1875 Z M 145.546875 -170.6875 L 104.015625 -170.6875 L 95.828125 -132.78125 L 80.78125 -123.0625 L 88.015625 -97.34375 L 75.625 -40.953125 L 117.359375 -40.953125 L 127.0625 -85.53125 L 105.921875 -75.0625 L 93.734375 -118.109375 L 139.828125 -144.59375 Z M 145.546875 -170.6875 "/></g></g><g clip-rule="nonzero" clip-path="url(#00fb3ebe43)"><g clip-rule="nonzero" clip-path="url(#1be085b271)"><g clip-rule="nonzero" clip-path="url(#3cfb14b5d4)"><path style=" stroke:none;fill-rule:nonzero;fill:#000000;fill-opacity:1;" d="M 46.628906 305.507812 L 12.554688 238.464844 L 170.214844 158.335938 L 204.289062 225.378906 Z M 46.628906 305.507812 "/></g></g></g><g clip-rule="nonzero" clip-path="url(#2dec40f677)"><g clip-rule="nonzero" clip-path="url(#e4abef1f37)"><g clip-rule="nonzero" clip-path="url(#c7bc494adb)"><path style=" stroke:none;fill-rule:nonzero;fill:#000000;fill-opacity:1;" d="M 187.410156 116.28125 L 163.320312 226.121094 L 120.910156 216.820312 L 144.996094 106.980469 Z M 187.410156 116.28125 "/></g></g></g></g></svg>